<?xml version="1.0" standalone="no"?>
<!DOCTYPE svg PUBLIC "-//W3C//DTD SVG 20010904//EN"
 "http://www.w3.org/TR/2001/REC-SVG-20010904/DTD/svg10.dtd">
<svg version="1.0" xmlns="http://www.w3.org/2000/svg"
 width="4642.000000pt" height="5304.000000pt" viewBox="0 0 4642.000000 5304.000000"
 preserveAspectRatio="xMidYMid meet">

<g transform="translate(0.000000,5304.000000) scale(0.100000,-0.100000)"
fill="#000000" stroke="none">
<path d="M23419 51664 c0 -27 -24 -629 -53 -1339 -29 -709 -51 -1292 -49
-1294 4 -6 532 -25 536 -20 2 2 14 256 26 564 12 307 24 561 27 564 3 3 253
-5 556 -17 304 -12 553 -20 555 -18 6 6 23 439 17 445 -3 3 -253 16 -556 28
-303 12 -552 24 -554 26 -2 2 1 144 8 315 l12 312 60 0 c34 0 324 -11 646 -25
321 -13 586 -22 588 -20 5 4 24 446 20 449 -2 2 -374 17 -828 35 -454 18 -867
35 -917 38 l-93 6 -1 -49z"/>
<path d="M20756 51600 c-158 -22 -290 -41 -293 -44 -2 -2 -109 -252 -237 -556
-128 -303 -237 -552 -242 -552 -5 0 -174 209 -375 466 -202 257 -371 472 -376
477 -7 7 -121 -4 -323 -30 -172 -23 -314 -42 -315 -43 -2 -2 262 -322 586
-713 324 -390 589 -714 589 -719 0 -15 141 -1100 143 -1102 3 -2 531 66 533
69 1 1 -29 241 -67 532 -38 292 -69 544 -70 560 -1 21 117 284 385 856 212
455 386 830 386 833 0 8 -3 8 -324 -34z"/>
<path d="M26315 51511 c-10 -50 -415 -2594 -415 -2610 0 -14 42 -23 262 -58
144 -23 264 -40 267 -37 2 2 41 237 87 521 46 285 85 532 89 549 l5 31 108
-18 c217 -39 299 -77 379 -178 56 -72 150 -257 363 -721 95 -206 174 -377 176
-379 6 -7 608 -102 625 -99 13 2 -15 75 -132 353 -168 398 -286 641 -358 735
-27 36 -85 100 -129 143 l-80 77 47 0 c82 0 236 28 317 58 222 81 359 237 426
484 29 109 32 319 5 418 -54 197 -171 343 -338 424 -175 84 -267 104 -1061
231 -326 52 -603 96 -615 98 -17 3 -23 -2 -28 -22z m821 -566 c184 -30 364
-62 400 -70 181 -42 279 -153 277 -315 -1 -101 -31 -178 -96 -247 -88 -93
-169 -108 -413 -78 -159 20 -615 92 -621 99 -3 3 18 151 46 328 28 178 51 326
51 331 0 11 -6 11 356 -48z"/>
<path d="M29595 50919 c-11 -32 -743 -2564 -742 -2565 4 -4 1909 -555 1935
-560 l28 -6 58 204 c33 112 59 209 60 217 1 9 -211 75 -714 221 -634 184 -715
210 -712 226 3 14 144 508 188 657 3 9 12 17 20 17 11 0 1204 -343 1270 -365
12 -4 140 422 130 432 -3 3 -289 88 -636 189 -347 101 -634 185 -639 188 -7 5
143 551 155 565 2 2 1126 -320 1375 -395 13 -3 27 36 78 212 35 118 61 218 58
221 -4 4 -1806 530 -1884 549 -14 4 -25 1 -28 -7z"/>
<path d="M16685 50861 c-132 -32 -245 -59 -251 -62 -7 -2 97 -467 290 -1296
238 -1022 304 -1293 316 -1293 15 0 1822 419 1826 423 4 3 -96 430 -101 436
-3 2 -298 -64 -657 -147 -358 -84 -652 -151 -653 -150 -2 2 -115 484 -252
1073 -187 807 -252 1070 -263 1071 -8 1 -123 -24 -255 -55z"/>
<path d="M15127 50423 c-168 -55 -257 -88 -255 -96 3 -7 189 -580 414 -1274
225 -695 414 -1263 420 -1263 25 0 504 161 504 170 0 7 -746 2312 -808 2496
l-17 52 -258 -85z"/>
<path d="M32784 49780 c-426 -77 -678 -511 -539 -928 66 -197 200 -344 575
-631 333 -256 410 -342 410 -465 0 -177 -193 -323 -399 -301 -157 17 -344 101
-453 204 -135 127 -182 287 -145 497 l13 70 -249 78 c-139 44 -253 74 -257 70
-22 -23 -53 -223 -54 -349 -2 -441 244 -742 778 -950 426 -166 760 -145 1023
65 205 164 333 487 294 740 -42 270 -172 431 -621 772 -384 292 -466 403 -401
543 41 88 113 127 236 127 226 0 497 -147 573 -310 23 -50 26 -68 24 -152 -1
-52 -3 -108 -4 -125 l-3 -29 245 -93 c135 -50 248 -92 252 -93 12 0 46 121 59
210 27 186 -21 386 -133 547 -133 194 -473 397 -801 479 -114 28 -330 40 -423
24z"/>
<path d="M12815 49551 l-250 -108 -3 -74 c-3 -85 95 -2799 101 -2806 3 -3 511
211 524 221 1 0 -8 145 -18 320 -11 176 -16 323 -12 327 10 10 959 419 972
419 5 0 110 -104 234 -231 l226 -230 271 117 c149 64 269 120 268 124 -8 20
-2038 2030 -2049 2030 -8 0 -126 -49 -264 -109z m628 -984 c183 -191 332 -352
332 -358 0 -10 -644 -294 -650 -287 -2 2 -14 208 -29 458 -14 250 -29 484 -32
520 l-6 65 27 -25 c15 -14 176 -181 358 -373z"/>
<path d="M35416 48688 c-36 -57 -1336 -2301 -1334 -2303 17 -14 458 -265 465
-265 6 0 140 225 299 500 203 352 293 499 304 496 16 -3 879 -502 894 -516 5
-5 -116 -224 -283 -511 -169 -291 -288 -506 -283 -511 5 -5 109 -67 232 -139
178 -103 226 -127 236 -117 14 16 1336 2294 1337 2305 0 8 -448 273 -463 273
-4 0 -126 -204 -271 -454 l-263 -453 -145 84 c-81 47 -286 166 -458 266 l-312
181 19 31 c30 49 510 878 510 881 0 2 -333 197 -462 271 -4 2 -14 -7 -22 -19z"/>
<path d="M10327 48230 c-178 -30 -317 -99 -904 -447 -357 -211 -483 -291 -480
-302 4 -15 1342 -2277 1356 -2293 8 -9 954 551 1064 629 230 166 372 361 429
588 18 74 22 118 22 250 0 178 -19 292 -75 452 -73 210 -262 529 -421 712
-180 207 -419 354 -653 402 -94 20 -249 23 -338 9z m176 -505 c174 -37 331
-167 492 -410 270 -407 361 -718 268 -916 -63 -135 -164 -218 -535 -437 l-187
-111 -34 57 c-376 627 -867 1466 -860 1472 4 4 82 51 172 104 271 162 429 235
536 249 58 8 81 7 148 -8z"/>
<path d="M8710 44729 c-102 -17 -182 -66 -340 -210 -1569 -1429 -2937 -3099
-4042 -4934 -1849 -3072 -2929 -6577 -3128 -10150 -31 -566 -40 -1476 -20
-2015 86 -2279 480 -4375 1220 -6503 l62 -177 98 94 c192 184 415 304 677 366
29 6 53 13 53 14 0 2 -49 151 -110 332 -1204 3618 -1402 7490 -573 11229 515
2328 1443 4592 2713 6625 646 1035 1398 2033 2210 2935 407 453 964 1015 1402
1419 126 115 241 229 257 255 94 148 95 367 3 511 -70 108 -195 190 -322 210
-74 11 -84 11 -160 -1z"/>
<path d="M37560 44729 c-119 -20 -257 -114 -317 -217 -64 -109 -82 -275 -43
-392 32 -96 74 -152 188 -256 583 -530 1207 -1166 1717 -1749 1041 -1189 1936
-2480 2710 -3910 238 -441 600 -1193 815 -1695 886 -2069 1440 -4286 1630
-6520 92 -1082 100 -2170 25 -3260 -124 -1791 -479 -3572 -1050 -5258 -47
-139 -85 -254 -85 -256 0 -2 24 -10 53 -16 263 -62 489 -184 678 -367 l97 -94
51 148 c687 1957 1085 3944 1206 6008 46 798 48 1756 5 2540 -188 3385 -1168
6713 -2847 9670 -1148 2021 -2617 3861 -4323 5414 -162 147 -238 193 -350 211
-74 11 -84 11 -160 -1z"/>
<path d="M10860 42677 c-60 -17 -64 -20 -247 -188 -3257 -2987 -5363 -7098
-5893 -11499 -134 -1113 -166 -2284 -95 -3430 129 -2064 606 -4095 1412 -6015
42 -99 86 -194 99 -211 35 -47 116 -84 185 -84 130 0 229 98 229 228 0 58 -9
86 -104 315 -747 1803 -1187 3636 -1335 5562 -41 527 -46 686 -46 1405 0 718
5 874 45 1395 308 3973 1913 7733 4574 10715 345 387 846 896 1242 1262 199
184 221 212 231 296 19 165 -135 294 -297 249z"/>
<path d="M35449 42677 c-62 -18 -104 -50 -136 -105 -24 -39 -28 -58 -28 -117
0 -48 6 -82 19 -108 12 -24 91 -105 210 -215 1896 -1752 3389 -3863 4398
-6217 881 -2055 1366 -4207 1459 -6465 15 -371 6 -1383 -15 -1725 -58 -914
-158 -1701 -322 -2525 -234 -1175 -615 -2413 -1065 -3465 -65 -151 -73 -178
-77 -245 -3 -70 -1 -78 30 -130 64 -105 193 -140 306 -84 29 14 60 37 71 50
24 30 87 175 206 469 724 1791 1162 3680 1300 5615 31 431 36 586 42 1155 6
588 -2 920 -33 1395 -271 4238 -1998 8284 -4874 11415 -448 488 -1202 1225
-1313 1282 -54 28 -120 36 -178 20z"/>
<path d="M23087 42440 c-168 -27 -389 -120 -550 -233 -409 -286 -830 -786
-1324 -1572 -619 -985 -989 -1723 -1223 -2440 -106 -326 -180 -658 -196 -884
-9 -113 -14 -122 -44 -69 -49 88 -263 398 -372 540 -360 467 -812 931 -1423
1464 -752 654 -1227 1000 -1695 1233 -467 232 -836 293 -1157 190 -189 -60
-312 -139 -461 -294 -297 -308 -543 -845 -742 -1620 -133 -516 -284 -1295
-354 -1822 -94 -708 -105 -1420 -30 -1933 102 -698 374 -1195 813 -1482 40
-26 77 -48 80 -48 4 0 25 15 47 33 72 62 342 242 421 282 1 0 -22 50 -52 110
-29 61 -77 173 -105 250 -68 184 -146 346 -203 420 -106 140 -290 247 -486
283 -72 13 -97 13 -161 3 -112 -19 -124 -18 -128 2 -10 48 87 113 210 142 249
59 574 -67 821 -318 66 -67 70 -69 64 -41 -19 96 -29 362 -24 619 5 254 4 289
-14 384 -38 194 -100 327 -208 443 -107 116 -183 161 -447 268 -108 43 -202
84 -208 90 -15 15 6 26 86 45 126 28 296 14 378 -33 150 -85 328 -249 415
-381 33 -50 61 -88 62 -84 1 5 20 137 43 294 78 555 48 769 -142 1027 -45 60
-162 182 -176 182 -5 0 -66 -96 -137 -212 -269 -446 -369 -575 -502 -645 -81
-44 -165 -47 -212 -8 -42 36 -79 117 -91 202 -14 106 -1 224 101 883 70 454
224 1062 362 1430 138 366 343 874 392 970 42 83 109 184 157 237 140 152 325
211 455 145 49 -26 124 -107 153 -167 74 -153 102 -615 55 -925 -23 -158 -88
-409 -167 -646 l-70 -211 52 -64 c55 -69 80 -111 100 -173 26 -82 104 -197
154 -227 68 -41 114 -19 158 76 20 44 23 66 23 175 0 131 -18 217 -67 315 -11
22 -47 101 -80 175 -51 115 -61 150 -73 240 -21 149 -18 450 4 450 3 0 30 -75
59 -168 73 -226 113 -333 184 -485 75 -161 114 -227 187 -320 57 -71 169 -167
197 -167 25 0 33 37 49 216 22 259 29 304 72 439 48 152 184 398 253 460 l23
20 -7 -21 c-43 -139 -59 -490 -31 -689 19 -141 53 -287 93 -404 l28 -84 115
-52 c63 -28 157 -77 209 -107 l95 -56 7 27 c3 14 21 87 38 161 17 74 51 187
75 250 48 130 136 333 141 327 2 -2 -1 -44 -7 -93 -14 -109 -6 -335 16 -459
23 -130 62 -274 108 -398 l40 -108 106 -87 c58 -48 184 -154 280 -237 96 -82
189 -162 206 -177 l32 -27 -9 52 c-15 89 -12 305 6 387 24 112 77 213 153 288
35 34 67 62 72 62 5 0 7 -80 4 -192 -8 -282 18 -478 99 -728 33 -101 101 -274
113 -288 2 -2 65 21 141 51 77 30 183 69 237 87 96 31 99 33 120 76 25 53 42
57 34 9 -3 -19 -4 -35 -1 -35 3 0 67 16 143 35 230 58 406 84 702 105 237 17
308 18 490 10 118 -6 223 -13 234 -16 33 -10 -72 92 -145 141 -81 54 -154 83
-245 99 -54 9 -71 16 -73 30 -7 32 26 54 100 66 211 36 467 -88 637 -308 l55
-70 85 -17 c48 -9 95 -19 107 -21 19 -5 26 9 78 160 31 91 83 229 116 307 113
266 129 504 50 722 -58 157 -128 247 -347 443 -90 79 -163 149 -163 154 0 13
87 13 152 -1 66 -14 222 -86 266 -123 44 -38 163 -217 217 -330 25 -51 55
-133 66 -182 12 -49 23 -96 26 -104 5 -16 13 -3 157 265 109 202 143 271 182
374 99 261 89 515 -31 769 l-44 93 -258 -207 c-142 -113 -292 -228 -333 -255
-188 -125 -346 -167 -446 -119 -60 30 -75 58 -82 155 -8 132 26 222 217 569
43 77 104 191 136 251 210 398 624 1014 881 1311 261 301 527 596 644 715 147
148 237 214 359 262 65 27 89 31 171 31 117 1 180 -23 240 -91 59 -67 75 -126
74 -263 -1 -99 -7 -136 -41 -270 -106 -410 -261 -692 -631 -1150 -47 -58 -89
-110 -94 -116 -5 -7 2 -42 18 -90 19 -57 29 -112 35 -199 13 -205 60 -305 141
-305 70 0 149 96 196 238 23 68 25 93 25 222 1 80 -4 204 -10 275 -12 149 0
228 58 403 30 91 103 262 112 262 2 0 2 -136 -1 -302 -6 -457 21 -663 113
-853 45 -93 76 -135 100 -135 19 0 40 39 131 235 43 94 105 211 138 260 70
108 256 296 368 373 108 74 116 75 74 9 -82 -128 -162 -310 -210 -480 -48
-164 -86 -421 -86 -572 0 -49 2 -52 58 -101 31 -28 98 -98 147 -155 49 -57 96
-112 105 -122 16 -17 19 -14 64 62 65 111 176 257 294 386 100 111 168 179
160 160 -2 -5 -22 -49 -45 -96 -111 -234 -165 -490 -167 -789 l-1 -165 101
-170 c105 -177 249 -432 280 -498 l18 -38 27 105 c62 236 158 398 292 490 51
35 155 78 168 70 4 -2 -14 -52 -41 -112 -133 -299 -186 -575 -177 -925 l4
-192 58 -140 c31 -77 60 -143 63 -146 4 -4 35 -9 68 -12 l62 -5 57 85 c55 81
263 309 272 299 3 -3 -13 -49 -35 -103 -48 -115 -103 -296 -94 -304 4 -3 90
-20 193 -38 351 -60 770 -175 1126 -307 95 -35 174 -64 176 -64 8 0 -14 115
-34 174 -56 167 -162 310 -283 380 -37 21 -65 44 -63 49 2 6 15 19 28 30 25
18 28 18 90 2 245 -63 433 -294 501 -613 11 -54 22 -106 24 -117 2 -13 23 -30
57 -47 49 -24 54 -25 64 -9 30 48 196 235 334 376 154 157 214 236 277 360 92
184 111 405 51 601 -11 38 -63 157 -115 265 -52 108 -94 202 -94 208 0 17 16
13 80 -19 65 -33 181 -136 234 -209 39 -53 69 -160 91 -327 19 -140 19 -200
-1 -313 -9 -51 -14 -94 -12 -96 8 -7 423 340 513 430 217 215 305 422 305 715
0 69 -4 131 -9 139 -7 11 -19 10 -72 -7 -164 -54 -599 -174 -681 -188 -124
-22 -285 -16 -348 13 -25 11 -58 35 -75 52 -27 29 -30 38 -30 99 1 138 86 242
408 503 99 79 244 197 324 261 264 213 678 498 978 673 82 48 310 167 505 264
731 363 818 396 1035 395 100 0 130 -4 178 -23 84 -33 150 -89 182 -156 26
-52 28 -62 22 -146 -7 -110 -33 -170 -136 -321 -243 -357 -517 -587 -1049
-879 l-157 -86 -12 -104 c-6 -59 -20 -125 -32 -152 -64 -148 -73 -299 -22
-351 71 -71 267 54 368 234 26 46 68 153 107 276 72 220 97 265 239 432 70 84
187 196 195 188 2 -2 -36 -91 -84 -198 -99 -220 -121 -275 -175 -443 -70 -219
-92 -384 -70 -524 12 -79 23 -101 50 -101 9 0 88 66 176 146 88 81 192 169
230 196 92 65 237 138 352 176 95 32 251 68 259 59 3 -2 -25 -26 -62 -52 -86
-62 -259 -228 -337 -325 -114 -142 -248 -365 -307 -511 l-23 -56 51 -119 c28
-66 65 -165 83 -221 21 -67 35 -100 43 -96 6 4 47 33 90 66 89 65 210 139 325
196 96 49 271 124 276 119 2 -2 -24 -26 -57 -53 -179 -145 -377 -436 -492
-722 l-45 -112 29 -198 c15 -109 39 -291 51 -404 l23 -205 59 80 c76 103 207
231 282 276 94 56 176 79 278 80 48 0 87 -2 87 -5 0 -3 -53 -58 -118 -123
-239 -237 -412 -517 -516 -835 -34 -101 -34 -104 -39 -334 -3 -128 -4 -233 -1
-233 2 0 49 34 104 75 124 92 216 146 340 201 154 68 155 67 50 -42 -163 -169
-285 -338 -478 -660 -84 -140 -127 -223 -142 -273 -12 -40 -38 -114 -59 -166
l-39 -93 146 -47 146 -47 106 35 c115 39 183 53 305 62 105 7 121 -3 64 -42
-61 -42 -80 -51 -190 -92 l-97 -37 116 -48 c65 -27 173 -78 241 -114 l124 -65
29 34 c364 425 543 979 620 1914 16 196 16 907 0 1145 -47 691 -152 1517 -257
2029 -150 729 -368 1241 -649 1526 -138 141 -297 233 -494 287 -105 29 -401
32 -537 5 -427 -84 -936 -325 -1542 -728 -471 -313 -1110 -795 -1493 -1124
-523 -449 -962 -922 -1238 -1334 l-96 -143 -18 73 c-200 825 -540 1608 -1183
2725 -496 860 -881 1356 -1295 1666 -136 102 -330 200 -465 234 -113 28 -309
40 -408 24z"/>
<path d="M22360 40243 c-105 -116 -333 -340 -450 -440 l-75 -65 36 -77 c20
-42 56 -130 79 -196 48 -139 78 -195 119 -224 53 -38 62 -34 150 79 45 58 117
144 161 192 l80 87 17 103 c21 140 21 411 -1 543 -9 54 -18 100 -19 101 -1 1
-45 -45 -97 -103z"/>
<path d="M23070 39713 c-138 -29 -310 -161 -471 -361 -298 -368 -787 -1338
-1004 -1987 -60 -179 -117 -388 -107 -396 4 -3 57 -24 117 -44 l110 -39 120
47 c66 25 158 59 204 75 l83 28 37 99 c126 340 360 796 788 1535 124 214 164
276 181 278 30 5 28 -9 -12 -121 -62 -172 -135 -329 -306 -662 -360 -698 -538
-1061 -527 -1072 3 -2 65 14 138 37 417 126 924 230 1353 279 92 11 170 21
172 23 2 3 -21 67 -52 144 -70 172 -164 432 -164 450 0 8 8 14 18 14 11 0 23
-16 36 -48 10 -26 74 -160 141 -299 l123 -251 273 5 c151 3 276 7 278 9 6 5
-93 278 -171 474 -107 266 -217 509 -353 785 -191 386 -341 619 -505 786 -153
155 -252 209 -395 214 -44 2 -91 1 -105 -2z"/>
<path d="M29850 39286 c-171 -79 -357 -156 -530 -216 l-135 -48 -3 -249 c-2
-243 -2 -251 21 -293 36 -69 42 -69 142 -11 48 29 150 83 225 121 135 68 139
70 174 129 60 98 143 280 179 391 29 87 69 241 64 240 -1 -1 -63 -29 -137 -64z"/>
<path d="M30070 38510 c-268 -68 -611 -285 -1064 -674 -507 -434 -880 -811
-1134 -1145 -55 -71 -70 -98 -60 -104 7 -4 81 -47 163 -95 83 -48 189 -114
238 -146 48 -31 91 -56 96 -54 4 2 48 50 98 108 143 166 400 410 688 651 306
257 947 749 974 749 36 0 23 -25 -62 -122 -109 -122 -230 -235 -461 -432 -509
-432 -752 -643 -868 -752 -128 -120 -274 -272 -267 -278 2 -1 51 -36 109 -76
140 -99 322 -235 450 -338 58 -47 111 -89 117 -95 9 -7 37 11 95 60 98 82 116
93 158 93 90 0 128 -142 99 -369 l-11 -86 199 -200 c110 -110 252 -256 316
-324 l117 -125 34 75 c69 150 121 375 146 634 6 61 15 344 20 630 9 542 14
625 35 625 15 0 16 -5 45 -500 32 -554 25 -822 -30 -1091 -28 -139 -60 -233
-121 -357 -38 -77 -48 -106 -40 -116 8 -9 59 -15 178 -19 93 -4 187 -10 210
-13 l41 -6 25 48 c123 244 219 665 262 1149 32 350 29 992 -5 1455 -54 708
-200 1104 -452 1220 -64 30 -84 35 -168 37 -69 2 -116 -3 -170 -17z"/>
<path d="M14981 38258 c-36 -84 -119 -261 -185 -393 l-121 -240 70 -70 c39
-38 105 -113 147 -165 91 -112 131 -141 196 -148 l48 -4 43 133 c24 74 63 182
86 242 l43 107 -24 108 c-13 59 -38 150 -55 202 -30 94 -164 380 -178 380 -4
0 -35 -69 -70 -152z"/>
<path d="M15966 38079 c-316 -74 -511 -530 -625 -1459 -91 -739 -105 -1276
-45 -1770 30 -254 96 -508 178 -684 32 -70 37 -76 55 -66 11 6 32 32 47 58 98
171 178 304 251 415 l85 128 -18 147 c-24 202 -25 622 -1 862 25 240 51 445
93 710 44 281 153 900 160 912 3 4 11 8 19 8 21 0 28 -92 21 -243 -10 -208
-23 -333 -81 -782 -61 -478 -90 -733 -105 -919 -11 -143 -13 -448 -4 -519 l6
-45 87 117 c249 332 567 683 886 974 107 97 319 274 384 319 l24 17 -24 28
c-13 16 -65 76 -116 133 -124 143 -203 242 -203 258 0 32 42 -2 220 -177 l193
-190 76 57 c42 31 139 95 216 144 77 48 146 91 152 95 21 13 -211 268 -577
634 -353 354 -518 499 -715 632 -264 176 -475 244 -639 206z"/>
<path d="M13209 30920 c-383 -383 -578 -637 -743 -967 -194 -389 -271 -801
-245 -1318 10 -217 20 -313 64 -625 19 -135 46 -348 60 -475 41 -370 82 -529
195 -760 208 -427 550 -793 1020 -1091 l85 -54 38 -192 c58 -294 193 -933 348
-1646 373 -1718 625 -2952 858 -4192 158 -845 242 -1339 361 -2125 151 -998
253 -1525 386 -1994 170 -596 543 -926 1409 -1246 1527 -563 3320 -882 5365
-955 357 -13 1648 -13 1995 0 1976 72 3661 360 5160 882 310 108 499 185 689
281 405 204 659 434 811 737 53 106 80 182 131 366 133 491 223 970 384 2039
214 1418 594 3394 1116 5805 268 1236 343 1591 445 2105 54 275 101 509 104
521 2 11 17 27 32 34 33 17 253 213 339 302 319 330 488 671 550 1105 22 149
30 762 15 1016 -31 502 -91 896 -212 1384 -98 397 -173 588 -314 799 -102 151
-97 147 -181 134 -38 -6 -70 -13 -72 -15 -2 -1 31 -49 73 -105 171 -230 263
-431 339 -735 142 -573 231 -1030 261 -1349 35 -368 2 -1002 -67 -1301 -78
-340 -247 -633 -560 -973 -81 -88 -109 -111 -190 -156 -52 -28 -178 -111 -279
-183 -570 -406 -804 -496 -1724 -658 -542 -96 -811 -167 -1645 -435 -848 -271
-1421 -387 -2215 -445 -370 -27 -826 -50 -955 -47 -188 4 -693 -16 -970 -38
-243 -19 -422 -37 -1070 -104 -554 -58 -895 -84 -1890 -141 -824 -47 -1241
-56 -1630 -35 -590 33 -955 91 -2080 330 -603 128 -775 161 -1109 216 -372 60
-451 75 -771 146 -434 95 -451 98 -770 108 -376 12 -457 17 -635 45 -258 41
-504 106 -740 198 -132 51 -779 372 -980 487 -155 88 -346 215 -467 312 -272
216 -446 440 -623 803 -169 346 -204 469 -245 870 -11 110 -36 306 -55 435
-65 447 -69 502 -70 830 0 250 3 325 18 415 41 247 99 428 207 650 148 305
328 542 680 898 l235 237 -16 53 -16 52 -234 -235z m18565 -6367 c38 -131 61
-390 52 -598 -4 -88 -7 -167 -7 -175 -3 -114 -92 -945 -125 -1165 -94 -637
-245 -1100 -434 -1332 -60 -74 -73 -82 -108 -63 -44 25 -82 166 -103 385 -21
221 0 444 96 1015 35 212 80 516 100 675 53 427 87 620 147 819 16 56 36 108
44 117 8 8 28 64 44 124 17 60 34 115 39 122 6 12 205 89 238 92 6 0 14 -7 17
-16z m-1240 -190 c141 -335 167 -715 100 -1458 -8 -93 -17 -188 -19 -210 -3
-22 -10 -87 -15 -145 -6 -58 -13 -118 -15 -135 -3 -16 -7 -57 -10 -90 -3 -33
-10 -103 -15 -155 -6 -52 -30 -309 -55 -570 -94 -995 -137 -1351 -220 -1808
-94 -513 -225 -964 -391 -1345 -101 -232 -112 -251 -151 -255 -24 -2 -36 3
-53 25 l-22 28 5 325 c3 179 11 370 16 425 30 290 42 386 72 594 16 113 34
232 39 265 138 813 168 1025 285 2016 36 305 94 780 129 1055 35 275 67 556
70 625 9 172 33 428 57 595 11 77 22 158 25 180 17 115 21 122 100 124 31 1
33 -2 68 -86z m-15498 -123 c113 -278 200 -526 364 -1035 44 -136 135 -468
204 -745 168 -668 284 -1245 506 -2501 66 -376 129 -731 140 -789 10 -58 21
-118 24 -135 2 -16 9 -55 15 -85 6 -30 13 -68 16 -85 3 -16 30 -165 60 -330
146 -804 247 -1493 290 -1965 2 -30 7 -77 10 -105 25 -255 36 -462 42 -806 6
-355 6 -356 -16 -378 -26 -26 -52 -27 -79 -3 -37 31 -233 681 -366 1207 -71
286 -187 801 -220 985 -3 14 -14 70 -26 125 -95 456 -224 1241 -425 2605 -189
1281 -319 2075 -365 2235 -11 39 -22 79 -25 90 -3 11 -32 117 -65 235 -99 354
-162 656 -200 950 -21 171 -43 532 -33 568 5 22 66 53 97 49 13 -1 28 -27 52
-87z m14512 -287 c12 -76 24 -160 27 -188 3 -27 9 -93 15 -145 25 -241 22
-735 -5 -1165 -5 -71 -22 -321 -31 -450 -17 -248 -65 -855 -69 -880 -2 -16 -7
-64 -10 -105 -5 -67 -47 -493 -60 -610 -32 -291 -82 -694 -111 -900 -19 -140
-37 -271 -40 -290 -22 -165 -106 -682 -150 -925 -30 -165 -56 -313 -59 -328
-15 -100 -40 -205 -52 -224 -18 -30 -63 -30 -89 -2 -26 28 -29 162 -15 582 18
534 46 964 96 1462 32 320 77 739 130 1200 167 1456 176 1564 179 2135 2 264
8 506 15 560 19 163 43 324 52 346 5 15 27 29 66 42 93 33 87 39 111 -115z
m-13498 57 c27 -27 153 -289 228 -475 239 -593 401 -1278 566 -2405 25 -168
47 -325 50 -350 3 -25 10 -76 15 -115 6 -38 13 -86 15 -105 3 -19 14 -97 25
-172 11 -75 23 -152 25 -170 14 -112 110 -664 200 -1158 105 -572 183 -1031
250 -1460 35 -221 151 -992 160 -1060 2 -19 18 -125 35 -235 63 -416 75 -548
75 -850 0 -226 -3 -298 -17 -372 -39 -203 -96 -355 -139 -366 -41 -11 -64 17
-106 125 -112 291 -176 594 -247 1163 -19 160 -49 385 -65 500 -16 116 -31
228 -34 250 -3 22 -26 191 -50 375 -25 184 -66 493 -91 685 -37 280 -102 757
-130 940 -32 219 -181 1144 -260 1615 -225 1349 -351 2071 -384 2210 -22 91
-45 188 -51 215 -7 28 -13 57 -16 65 -72 295 -135 715 -150 1000 l-7 126 28
22 c34 27 49 28 75 2z m2289 -227 c138 -139 205 -311 271 -697 76 -448 248
-1810 394 -3126 25 -223 48 -425 51 -450 32 -276 176 -1654 189 -1810 3 -30
14 -147 25 -260 11 -113 23 -236 26 -275 3 -38 8 -88 10 -110 8 -66 53 -585
70 -805 8 -113 17 -232 20 -265 6 -68 33 -492 33 -515 0 -8 5 -137 12 -285 13
-300 3 -519 -25 -562 -22 -32 -67 -31 -94 3 -71 90 -177 705 -315 1814 -54
429 -158 1340 -171 1485 -4 39 -8 81 -10 95 -4 25 -110 1010 -119 1110 -9 100
-56 512 -76 670 -11 85 -21 171 -24 190 -36 289 -153 1093 -256 1765 -38 248
-71 466 -74 485 -2 19 -32 195 -65 390 -78 458 -101 639 -101 804 0 189 33
351 82 403 37 39 62 30 147 -54z m-1009 -60 c162 -167 272 -415 355 -798 42
-194 242 -1420 298 -1825 3 -19 23 -161 46 -315 63 -442 181 -1428 225 -1885
51 -528 152 -1484 186 -1760 11 -85 21 -175 24 -200 7 -61 36 -256 90 -605 56
-360 65 -435 87 -685 19 -223 4 -530 -36 -730 -21 -107 -29 -132 -46 -154 -20
-25 -53 -33 -75 -18 -26 17 -97 185 -137 327 -65 230 -120 579 -251 1595 -3
19 -14 100 -25 180 -11 80 -22 161 -24 180 -3 19 -46 330 -95 690 -50 360 -93
675 -96 700 -3 25 -12 92 -20 150 -8 58 -31 233 -51 390 -19 157 -37 303 -40
325 -3 22 -17 135 -30 250 -34 285 -68 547 -115 875 -22 151 -42 291 -44 310
-29 226 -349 2256 -386 2449 -44 230 -25 565 33 606 37 26 59 17 127 -52z
m11144 24 c48 -48 127 -303 163 -527 15 -95 18 -171 18 -440 -1 -185 -6 -375
-13 -440 -7 -63 -15 -137 -17 -165 -3 -27 -14 -131 -25 -230 -49 -450 -70
-784 -70 -1145 -1 -489 -37 -1214 -75 -1504 -2 -17 -6 -53 -10 -81 -3 -27 -19
-132 -36 -232 -64 -388 -159 -696 -297 -957 -55 -106 -85 -133 -125 -115 -15
7 -29 19 -31 28 -11 35 -26 154 -40 316 -43 495 -27 888 75 1800 27 248 52
468 54 490 24 222 68 825 100 1375 7 120 33 506 40 585 3 33 9 112 15 175 12
145 18 226 25 365 11 220 59 453 125 615 44 108 79 132 124 87z m-1761 -134
c30 -111 39 -210 42 -478 6 -561 -22 -1394 -80 -2380 -8 -137 -17 -299 -20
-360 -3 -60 -10 -182 -16 -270 -5 -88 -12 -196 -14 -240 -34 -561 -60 -904
-100 -1305 -33 -329 -43 -469 -55 -765 -6 -137 -13 -304 -15 -370 -25 -587
-88 -936 -217 -1203 -44 -88 -73 -118 -108 -107 -33 10 -47 42 -74 170 -113
543 -128 1091 -56 2145 51 733 62 997 85 1930 14 565 28 1008 40 1235 22 425
27 502 31 515 3 8 9 170 14 360 10 394 15 474 36 655 24 208 81 452 107 459 7
2 53 9 104 16 50 6 124 20 165 30 115 28 113 29 131 -37z m-2015 -35 c40 -44
95 -279 107 -458 6 -97 -10 -1889 -20 -2255 -7 -240 -43 -1354 -50 -1545 -32
-876 -39 -2162 -16 -2860 12 -354 13 -545 3 -1140 -6 -393 -14 -728 -17 -745
-20 -108 -60 -243 -78 -262 -25 -28 -58 -29 -81 -4 -44 49 -154 570 -196 931
-6 52 -13 113 -15 135 -9 77 -36 401 -45 555 -5 85 -15 839 -21 1675 -13 1699
-7 2153 36 3160 12 274 36 712 56 1010 11 171 22 427 25 570 7 439 32 678 96
914 35 130 99 282 136 324 21 24 54 21 80 -5z m2735 10 c26 -21 93 -156 126
-254 35 -106 66 -255 78 -369 12 -122 9 -781 -5 -945 -7 -80 -15 -170 -17
-200 -3 -30 -12 -149 -22 -265 -14 -175 -17 -357 -18 -1090 -2 -860 -6 -1013
-40 -1360 -2 -27 -7 -79 -10 -115 -14 -158 -61 -449 -101 -620 -86 -369 -264
-800 -330 -800 -51 0 -93 107 -139 355 -40 218 -50 358 -49 695 0 346 8 480
60 985 52 511 82 850 94 1050 5 99 12 209 15 245 2 36 7 106 10 155 11 191 66
955 76 1055 5 58 14 256 19 440 8 300 13 380 35 540 25 180 103 449 141 487
26 26 52 29 77 11z m-1724 -25 c24 -20 47 -121 82 -355 18 -124 20 -169 15
-338 -4 -107 -22 -742 -41 -1410 -69 -2406 -94 -3137 -110 -3310 -7 -73 -14
-198 -35 -600 -16 -307 -29 -828 -35 -1325 -6 -522 -8 -575 -35 -822 -32 -286
-119 -662 -165 -714 -39 -42 -86 -19 -114 56 -56 148 -97 376 -108 596 -9 156
-9 194 -5 735 1 198 0 367 -2 375 -3 8 -10 194 -16 414 -25 867 42 2902 135
4139 9 109 18 218 20 243 3 25 7 81 10 126 3 45 12 154 21 242 8 88 17 185 20
215 15 175 51 500 79 728 3 20 14 108 25 195 10 86 26 179 35 205 8 26 27 110
41 187 45 245 83 387 110 413 30 27 45 28 73 5z m-4429 -63 c37 -39 122 -212
155 -315 57 -174 129 -566 179 -965 3 -19 20 -156 40 -305 134 -1021 192
-1511 216 -1805 5 -74 12 -162 15 -195 28 -335 30 -482 30 -1875 1 -1055 4
-1517 13 -1680 15 -252 19 -772 9 -955 -11 -185 -35 -375 -67 -535 -31 -156
-92 -371 -115 -407 -22 -32 -53 -38 -83 -16 -34 25 -94 136 -127 233 -30 87
-29 78 -80 935 -20 325 -58 937 -84 1360 -56 873 -68 1098 -76 1410 -11 420
-45 1228 -70 1635 -4 69 -7 132 -20 370 -3 47 -12 229 -20 405 -10 208 -26
400 -45 550 -121 939 -122 1539 -3 2039 35 148 72 181 133 116z m965 -5 c55
-15 103 -32 107 -38 17 -26 61 -188 83 -302 21 -107 45 -307 60 -495 2 -36 14
-141 25 -235 89 -757 110 -996 147 -1665 22 -388 24 -1763 5 -2520 -12 -491
-16 -1155 -7 -1375 3 -66 12 -259 20 -430 51 -1045 34 -1529 -68 -1970 -40
-170 -52 -210 -68 -226 -45 -45 -89 -14 -123 88 -61 188 -62 196 -81 693 -9
212 -24 603 -35 870 -74 1821 -67 1574 -85 3090 -3 245 -12 765 -20 1155 -8
391 -17 895 -21 1120 -5 379 -8 425 -34 610 -93 644 -111 1165 -55 1540 18
118 21 129 38 122 7 -2 57 -17 112 -32z m1326 -210 c35 -78 64 -197 79 -320
10 -90 53 -721 65 -950 3 -66 8 -154 10 -195 7 -110 25 -881 26 -1120 1 -113
3 -1055 4 -2095 l2 -1890 26 -300 c77 -894 57 -1326 -80 -1667 -73 -182 -118
-194 -212 -53 -134 200 -169 524 -127 1145 10 137 18 393 19 580 2 331 -9
1010 -18 1145 -3 39 -10 351 -15 695 -12 774 -16 981 -35 1840 -8 377 -19 921
-25 1210 -9 461 -14 547 -35 710 -79 593 -80 1033 -4 1267 9 29 14 32 62 37
29 3 84 10 122 15 39 4 78 9 88 10 13 1 26 -17 48 -64z m-4253 -189 c52 -27
198 -307 272 -521 135 -394 206 -822 275 -1655 30 -364 41 -465 106 -978 53
-424 90 -774 111 -1052 16 -223 16 -848 -1 -990 -7 -58 -14 -125 -17 -150 -8
-85 -36 -235 -64 -355 -47 -197 -70 -245 -116 -245 -36 0 -59 41 -92 162 -81
294 -125 633 -152 1153 -5 110 -12 250 -15 310 -26 527 -74 981 -200 1895 -3
19 -21 170 -41 335 -28 231 -116 813 -170 1115 -4 22 -11 70 -30 210 -13 100
-16 431 -4 512 16 115 55 234 83 253 26 18 22 18 55 1z m860 -1 c32 -23 108
-134 141 -207 53 -116 91 -268 127 -503 2 -11 19 -144 38 -295 19 -151 76
-516 125 -810 179 -1074 243 -1519 306 -2150 45 -457 69 -792 110 -1595 14
-264 27 -518 30 -565 2 -47 7 -134 10 -195 3 -60 7 -148 10 -195 32 -595 36
-1018 14 -1520 -1 -22 -18 -200 -23 -240 -3 -19 -8 -60 -11 -90 -9 -74 -52
-297 -76 -395 -21 -85 -43 -115 -85 -115 -29 0 -46 25 -85 126 -119 308 -162
618 -199 1409 -19 412 -36 616 -100 1235 -71 686 -179 1888 -210 2340 -6 85
-13 175 -15 200 -4 43 -8 115 -20 320 -5 83 -52 1012 -54 1065 0 11 -7 136
-16 278 -8 142 -14 261 -13 265 4 15 -14 193 -32 317 -55 381 -86 839 -75
1104 7 173 14 202 49 219 28 14 28 14 54 -3z"/>
<path d="M13520 30726 c-121 -52 -218 -104 -320 -170 -114 -73 -134 -90 -127
-109 5 -13 24 -10 119 14 62 16 118 29 123 29 6 0 -28 -18 -75 -39 -214 -96
-274 -135 -242 -155 4 -2 57 15 117 39 211 84 505 155 645 155 l59 0 -64 68
c-35 37 -83 97 -107 134 -24 37 -45 67 -48 67 -3 0 -39 -15 -80 -33z"/>
<path d="M32415 30635 c-44 -29 -143 -87 -220 -130 -77 -42 -160 -88 -183
-102 l-44 -25 22 -23 c67 -71 192 -86 298 -35 71 33 150 107 182 169 26 52 42
137 32 172 l-7 26 -80 -52z"/>
<path d="M32743 30403 c-42 -27 -53 -46 -53 -95 0 -28 40 -68 68 -68 32 0 103
43 117 71 49 95 -36 155 -132 92z"/>
<path d="M16910 30273 c-25 -2 -60 -6 -79 -9 l-34 -5 7 -61 c11 -113 75 -216
160 -260 108 -56 273 -23 384 77 51 46 107 144 117 206 l7 36 -77 12 c-68 10
-369 13 -485 4z"/>
<path d="M14655 30090 c82 -41 114 -44 144 -15 26 25 14 29 -169 49 l-55 6 80
-40z"/>
<path d="M14935 30082 c6 -5 64 -50 130 -100 66 -50 129 -99 140 -109 62 -55
127 -104 132 -100 10 11 -26 191 -51 252 l-24 60 -168 3 c-96 1 -164 -1 -159
-6z"/>
<path d="M32345 29728 c-251 -86 -580 -227 -684 -292 -20 -13 -88 -42 -151
-66 -63 -24 -143 -56 -177 -71 l-63 -28 0 22 c0 12 -7 34 -14 49 -9 17 -13 42
-9 62 4 27 1 36 -18 50 -34 24 -76 20 -147 -14 -111 -52 -222 -191 -222 -278
0 -19 9 -46 20 -62 24 -34 42 -19 -230 -200 -436 -291 -603 -375 -858 -435
-241 -57 -290 -60 -991 -57 l-644 3 -151 34 c-391 89 -588 94 -862 25 -345
-87 -688 -282 -1094 -621 -162 -135 -600 -566 -600 -591 0 -13 7 -18 26 -18
19 0 50 24 117 88 261 248 554 487 820 665 293 197 538 307 807 364 119 25
371 22 490 -4 78 -18 82 -20 53 -27 -18 -4 -33 -11 -33 -15 0 -12 166 -39 340
-57 85 -8 279 -35 430 -59 438 -71 575 -86 1035 -115 462 -30 634 -50 876
-105 194 -43 261 -81 509 -286 152 -126 321 -208 578 -283 126 -37 151 -37
174 -2 22 33 -12 52 -242 136 -236 86 -300 122 -490 281 -119 99 -191 150
-253 177 -26 11 -27 14 -13 28 19 18 31 59 22 73 -11 17 13 139 38 194 63 140
220 329 483 580 346 329 539 483 735 587 49 26 86 49 83 52 -7 6 116 62 172
79 33 9 62 9 155 -5 62 -9 187 -25 278 -36 106 -13 192 -30 240 -47 43 -15
102 -27 140 -28 71 -3 203 -43 314 -95 68 -33 93 -33 104 -2 2 6 -35 37 -82
67 -138 90 -268 144 -446 184 -47 11 -139 39 -205 62 -109 39 -130 43 -225 45
-58 1 -118 -2 -135 -8z m-2765 -1498 c261 -10 424 -27 610 -62 102 -20 111
-23 80 -30 -57 -12 -107 -11 -260 6 -80 9 -258 25 -397 36 -338 27 -465 42
-433 51 36 10 123 10 400 -1z"/>
<path d="M18385 29565 c-255 -133 -376 -183 -745 -305 -421 -139 -715 -256
-945 -376 -127 -65 -212 -112 -254 -138 -22 -14 -43 -26 -45 -26 -3 0 -67 -41
-143 -92 -76 -50 -177 -108 -224 -129 -303 -132 -510 -268 -682 -449 -98 -103
-122 -134 -112 -150 13 -21 39 -9 102 48 131 116 240 195 368 267 l50 28 -50
-52 -50 -52 40 18 c22 10 60 29 85 42 98 52 378 167 659 272 369 138 480 180
604 230 268 109 459 161 632 174 110 8 309 -9 459 -40 104 -21 130 -31 342
-138 363 -184 434 -238 682 -514 125 -139 220 -210 422 -313 285 -147 329
-188 480 -453 92 -162 156 -244 183 -234 32 12 30 37 -9 95 -21 31 -75 131
-121 220 -46 90 -101 190 -123 221 -61 90 -154 168 -326 271 -178 107 -189
117 -371 345 -227 284 -321 416 -373 520 -67 133 -84 204 -78 325 5 99 33 191
83 270 l22 36 -176 83 c-97 45 -183 84 -191 86 -8 3 -96 -38 -195 -90z"/>
<path d="M15954 29380 c-44 -29 -62 -74 -43 -109 12 -21 23 -27 57 -29 37 -3
47 1 77 31 80 80 5 168 -91 107z"/>
<path d="M27641 29129 c-74 -29 -167 -120 -176 -172 -10 -54 8 -89 71 -136 87
-65 112 -75 184 -76 79 0 143 29 200 91 70 76 77 163 18 230 -69 78 -192 104
-297 63z"/>
<path d="M26001 29087 c-94 -28 -102 -32 -75 -39 49 -13 170 -21 209 -14 47 9
70 50 40 72 -26 20 -55 16 -174 -19z"/>
<path d="M17570 28744 c-47 -7 -105 -20 -130 -28 l-45 -15 40 4 c115 13 509
17 619 6 65 -7 126 -15 135 -18 11 -4 13 -3 6 5 -12 12 -135 37 -255 52 -112
13 -265 11 -370 -6z"/>
<path d="M20839 28491 c-97 -31 -151 -137 -96 -189 38 -36 79 -38 141 -8 62
30 106 76 106 110 0 29 -58 84 -95 90 -17 3 -42 1 -56 -3z"/>
<path d="M21222 28081 c-178 -61 -242 -303 -115 -433 55 -56 109 -73 228 -72
85 1 112 5 180 31 252 94 318 219 191 360 -79 88 -157 118 -331 127 -81 4
-110 2 -153 -13z"/>
<path d="M14265 27995 c-104 -49 -295 -110 -422 -136 -80 -15 -113 -26 -113
-36 0 -26 30 -72 63 -97 101 -78 326 -41 450 73 49 45 102 136 112 194 9 46 3
46 -90 2z"/>
<path d="M13446 27695 c-51 -47 -55 -98 -10 -116 32 -12 65 2 97 41 29 34 35
68 15 88 -21 21 -73 14 -102 -13z"/>
<path d="M13748 27410 c-10 -6 -18 -19 -18 -30 0 -34 154 -75 432 -115 390
-57 545 -122 742 -314 166 -161 298 -343 501 -691 219 -376 235 -400 259 -400
24 0 46 17 46 37 0 17 -175 405 -260 574 -124 249 -229 398 -400 570 -160 162
-306 247 -498 289 -48 11 -170 26 -272 35 -185 15 -443 42 -490 51 -14 2 -33
-1 -42 -6z"/>
<path d="M22083 27371 c-165 -57 -321 -231 -331 -370 -6 -87 12 -136 71 -195
74 -74 131 -90 291 -83 317 13 587 180 621 384 18 112 -63 226 -189 265 -17 5
-116 11 -221 13 -164 4 -197 2 -242 -14z"/>
<path d="M31146 27029 c-151 -37 -281 -180 -261 -286 9 -50 83 -121 150 -146
108 -40 282 -30 386 23 55 29 117 86 140 131 51 100 -2 215 -120 260 -64 25
-229 35 -295 18z"/>
<path d="M23914 26746 c-60 -60 -40 -126 38 -126 32 0 47 7 74 34 59 59 38
126 -40 126 -30 0 -45 -7 -72 -34z"/>
<path d="M32352 26704 c-63 -44 -61 -114 4 -114 62 0 118 82 82 118 -17 17
-59 15 -86 -4z"/>
<path d="M22400 26624 c-99 -12 -248 -39 -357 -64 -161 -38 -456 -135 -578
-190 -11 -4 -78 -34 -150 -66 -71 -31 -204 -93 -295 -137 -109 -52 -205 -90
-285 -113 -66 -18 -172 -52 -235 -75 -98 -36 -127 -42 -195 -43 -72 0 -94 -7
-95 -28 0 -16 71 -27 159 -24 67 2 148 15 271 44 96 22 189 43 205 46 17 2 84
16 150 30 299 63 527 80 963 73 402 -6 458 -16 891 -154 218 -69 317 -111 451
-189 47 -28 108 -61 135 -73 64 -30 261 -106 297 -115 15 -3 84 -42 153 -87
176 -112 331 -192 459 -234 124 -42 228 -52 234 -24 2 12 -7 18 -33 23 -61 12
-187 56 -273 96 -102 48 -260 142 -245 147 5 2 97 -12 204 -31 387 -69 546
-90 820 -107 267 -17 549 9 704 64 l40 14 -74 23 c-41 12 -165 39 -275 61
-118 23 -253 56 -326 81 -148 50 -424 186 -640 316 -165 99 -165 99 -249 152
-31 19 -65 40 -76 46 -11 6 -67 39 -125 74 -311 187 -635 338 -853 399 -187
53 -261 62 -507 66 -129 2 -251 1 -270 -1z"/>
<path d="M30050 26251 c-25 -5 -90 -12 -145 -16 -356 -25 -710 -157 -1001
-373 -85 -63 -204 -169 -204 -182 0 -5 26 -2 58 6 668 160 1023 226 1369 255
178 15 667 6 808 -15 55 -8 101 -13 103 -11 6 6 -111 81 -198 128 -105 56
-362 159 -467 187 -86 23 -253 34 -323 21z"/>
<path d="M26188 25190 c-242 -43 -405 -184 -416 -358 -4 -55 0 -71 27 -127 49
-99 142 -171 266 -206 34 -10 100 -14 210 -13 131 0 174 5 240 22 179 49 327
148 381 254 73 145 -25 312 -228 390 -76 29 -393 54 -480 38z"/>
<path d="M27404 25106 c-76 -76 -11 -161 86 -111 87 45 77 145 -14 145 -30 0
-45 -7 -72 -34z"/>
<path d="M3428 20900 c-538 -48 -987 -429 -1124 -955 -12 -49 -23 -77 -24 -62
0 19 -4 26 -11 21 -16 -9 -5 -232 16 -341 95 -492 455 -871 946 -998 143 -37
369 -46 519 -20 408 68 754 322 938 690 87 175 122 324 127 540 2 88 1 148 -1
133 -8 -45 -19 -32 -37 43 -10 39 -31 106 -48 148 -209 523 -741 850 -1301
801z"/>
<path d="M42786 20899 c-484 -43 -907 -362 -1080 -814 -18 -49 -40 -116 -47
-147 -13 -63 -25 -74 -33 -30 -2 15 -3 -45 -1 -133 5 -216 40 -365 128 -540
184 -368 529 -622 937 -690 150 -26 376 -17 519 20 491 127 851 506 946 998
21 107 33 353 17 343 -7 -4 -12 -17 -12 -29 -1 -12 -12 19 -24 68 -159 606
-729 1009 -1350 954z"/>
<path d="M7276 19348 c4 -13 27 -70 51 -128 42 -99 45 -111 45 -200 1 -108
-25 -204 -89 -320 -75 -139 -237 -316 -393 -432 -41 -30 -367 -230 -725 -444
-357 -213 -1010 -603 -1449 -866 -440 -264 -803 -475 -807 -471 -5 5 -26 55
-47 111 -21 56 -41 105 -44 107 -3 3 -115 -60 -249 -141 -269 -162 -357 -207
-499 -252 -160 -51 -243 -65 -390 -66 -155 0 -244 20 -340 79 -76 46 -102 51
-158 30 -69 -26 -102 -53 -123 -99 -40 -88 -12 -185 83 -286 176 -190 411
-509 620 -845 221 -355 578 -1007 890 -1625 231 -458 414 -758 791 -1303 173
-249 314 -424 467 -577 312 -315 581 -473 910 -536 137 -26 363 -24 493 4 338
74 740 283 1029 535 361 317 545 777 508 1271 -12 160 -46 343 -90 480 -17 51
-30 96 -30 100 0 3 22 -10 49 -29 201 -145 538 -199 832 -135 278 60 603 236
811 438 148 144 228 270 286 452 45 144 57 227 57 415 0 184 -8 244 -61 462
-72 299 -192 605 -383 978 -302 589 -605 1094 -889 1480 -264 358 -318 433
-411 572 -265 398 -435 720 -541 1023 -45 129 -86 192 -142 219 -58 27 -71 27
-62 -1z m829 -2639 c47 -13 163 -67 171 -80 3 -5 22 -9 42 -9 54 0 148 -26
205 -58 114 -62 243 -253 319 -472 30 -88 32 -104 32 -220 0 -113 -3 -133 -31
-215 -39 -113 -68 -164 -140 -250 -113 -134 -309 -266 -526 -356 -150 -61
-237 -81 -357 -80 -127 1 -200 18 -298 72 -41 21 -81 39 -91 39 -40 0 -142 33
-221 72 -153 75 -335 284 -421 485 -30 70 -34 88 -34 173 0 87 3 101 32 160
18 36 57 93 88 127 83 92 303 250 595 428 244 149 361 193 510 194 47 1 103
-4 125 -10z m-1929 -1244 c29 -8 75 -30 102 -49 41 -27 67 -36 131 -45 108
-14 186 -55 280 -145 267 -259 461 -787 422 -1154 -19 -181 -70 -343 -150
-480 -44 -76 -151 -207 -168 -207 -6 0 -61 41 -122 92 l-110 92 -68 -71 c-212
-221 -608 -440 -910 -503 -104 -22 -303 -22 -408 0 -220 46 -433 196 -622 437
-243 311 -363 549 -363 720 0 76 32 195 76 281 30 57 63 98 158 192 67 66 162
149 211 183 176 125 625 383 916 527 291 145 454 178 625 130z"/>
<path d="M40383 19090 c-18 -7 -23 -18 -24 -47 -4 -125 11 -235 62 -437 l30
-118 -63 -114 c-112 -205 -255 -386 -423 -536 -97 -87 -155 -156 -155 -185 0
-18 -7 -17 -40 7 -64 46 -158 82 -215 82 -31 0 -59 -2 -62 -6 -10 -9 -6 -92 7
-146 14 -57 72 -130 120 -150 17 -7 43 -10 62 -5 127 26 182 15 303 -60 46
-29 81 -46 78 -37 -5 13 2 14 48 8 148 -19 320 -152 461 -358 53 -78 1260
-2490 1250 -2499 -4 -3 -423 22 -932 56 -833 56 -1468 96 -1745 109 -120 6
-223 33 -329 86 -43 22 -85 40 -93 40 -38 0 -205 66 -269 105 -85 53 -167 131
-195 187 -11 22 -24 65 -29 95 -5 31 -16 66 -24 78 -18 27 -98 68 -123 63 -14
-2 -9 -11 22 -42 22 -21 57 -50 78 -64 39 -26 47 -42 22 -42 -9 0 -35 -19 -58
-43 -33 -33 -51 -66 -85 -154 -125 -326 -468 -899 -866 -1446 -159 -219 -150
-211 -248 -226 -108 -17 -288 -63 -369 -96 -53 -21 -76 -38 -135 -103 -75 -81
-104 -127 -104 -162 0 -37 27 -75 72 -100 37 -21 56 -25 128 -25 81 0 88 2
162 43 183 102 459 163 963 212 63 7 853 21 1830 34 l1720 22 95 -62 c52 -34
221 -145 375 -247 155 -101 299 -196 320 -209 66 -42 226 -184 289 -256 119
-137 207 -291 241 -421 9 -37 15 -104 15 -180 l0 -121 43 -41 c50 -50 92 -69
147 -69 95 0 150 52 219 205 93 210 110 245 192 397 298 555 727 1176 1098
1586 61 67 120 140 131 162 23 46 26 116 6 163 -26 63 -111 117 -186 117 -14
0 -57 -16 -96 -35 -104 -52 -194 -68 -334 -62 -192 10 -345 50 -535 143 -66
32 -268 157 -509 316 l-399 263 -733 1397 -734 1397 -61 218 c-85 306 -175
661 -193 769 -11 62 -15 139 -14 235 l3 144 -31 55 c-51 90 -124 134 -181 110z"/>
<path d="M12903 11983 c-103 -69 -119 -101 -126 -258 -5 -137 -14 -167 -90
-304 -60 -110 -168 -229 -292 -326 -60 -46 -1806 -1165 -1919 -1229 -11 -6
-366 -231 -789 -499 -424 -268 -791 -499 -817 -512 l-46 -23 -68 103 -68 103
-75 -46 c-349 -210 -861 -334 -1147 -277 -112 22 -187 16 -255 -20 -67 -37
-92 -65 -98 -113 -11 -82 32 -118 260 -220 287 -128 522 -269 714 -429 91 -75
180 -164 343 -339 88 -96 137 -119 251 -117 103 1 158 22 207 78 30 34 33 43
29 84 -2 25 -12 66 -22 91 -32 85 -4 173 111 353 50 77 190 226 280 298 100
80 1065 689 1079 681 19 -11 188 -130 855 -599 346 -244 633 -443 638 -443 5
0 13 18 18 41 l9 40 265 -187 c146 -102 267 -188 269 -190 3 -2 -29 -153 -69
-334 -73 -329 -74 -330 -99 -330 -14 0 -87 9 -161 19 -74 10 -136 18 -136 17
-1 -1 -24 -100 -52 -221 -72 -318 -142 -492 -262 -655 -109 -146 -222 -220
-336 -220 -46 0 -68 -5 -87 -20 -88 -70 -70 -285 32 -388 17 -16 121 -75 233
-130 575 -283 1330 -821 1839 -1309 140 -134 169 -153 228 -153 85 0 128 77
119 215 -4 67 -10 83 -57 165 -80 138 -120 271 -152 500 -17 120 -14 422 4
557 13 90 567 2560 897 3998 81 353 108 505 119 691 16 259 -16 472 -104 689
-75 185 -128 250 -345 424 -164 131 -257 193 -433 288 -262 142 -424 255 -575
402 l-82 79 -37 -25z m-169 -1430 c-21 -83 -71 -308 -69 -311 1 -1 87 51 191
117 104 66 190 117 191 113 2 -4 -78 -365 -178 -802 -262 -1155 -323 -1418
-330 -1424 -3 -3 -68 38 -145 93 l-139 98 -9 -44 c-5 -24 -12 -42 -16 -41 -28
12 -1419 1002 -1415 1007 2 4 354 229 782 500 428 271 857 544 953 606 96 62
178 114 183 114 4 1 4 -11 1 -26z"/>
<path d="M35690 11823 c-214 -27 -566 -129 -805 -233 -234 -102 -534 -261
-852 -452 -176 -105 -187 -111 -295 -135 -146 -33 -255 -73 -403 -148 -320
-162 -450 -293 -505 -511 -11 -43 -21 -78 -23 -79 -1 -1 -87 -62 -192 -137
-587 -416 -811 -565 -1085 -723 -170 -98 -445 -237 -615 -310 -71 -31 -147
-67 -168 -81 l-37 -24 -38 19 c-53 27 -158 58 -224 66 -56 7 -57 7 -72 -23 -9
-17 -16 -55 -16 -85 0 -43 6 -63 31 -100 46 -70 89 -86 224 -84 96 1 120 -3
190 -27 141 -49 274 -128 384 -231 l55 -50 -57 83 c-32 46 -52 82 -44 82 28 0
176 -80 254 -138 95 -71 207 -180 285 -278 46 -58 561 -838 725 -1099 28 -44
267 -409 531 -812 l480 -731 -79 -57 c-47 -34 -76 -62 -72 -68 3 -7 54 -86
114 -177 131 -202 178 -288 218 -404 42 -118 61 -235 61 -365 0 -136 -19 -221
-69 -317 -48 -90 -51 -127 -17 -199 27 -59 51 -82 103 -101 98 -35 151 -12
314 136 524 477 1321 994 1957 1271 151 65 192 93 217 145 26 55 18 149 -19
204 -41 62 -96 84 -191 75 -54 -5 -94 -3 -149 10 -86 19 -252 99 -349 169 -84
59 -211 179 -280 263 -68 84 -481 718 -516 793 -22 47 -26 69 -26 150 0 113
10 135 99 228 76 80 153 136 337 249 l146 90 569 -334 c313 -184 612 -366 664
-406 120 -90 275 -246 319 -320 82 -138 100 -231 66 -331 -17 -50 -17 -54 0
-90 36 -76 149 -122 280 -114 101 7 145 32 277 155 407 382 1161 883 1783
1187 94 45 201 96 240 112 38 16 86 45 107 65 32 30 38 42 38 77 0 53 -37 97
-108 129 -77 34 -150 39 -281 18 -97 -16 -127 -17 -238 -6 -255 23 -532 97
-781 209 -99 45 -1384 784 -1421 818 -12 11 -6 22 36 71 135 159 259 347 357
544 129 258 177 455 178 729 2 240 -46 437 -161 663 -187 369 -474 701 -765
882 -107 67 -208 86 -461 90 -104 2 -206 1 -225 -2z m-1353 -1094 c192 -26
430 -140 576 -274 82 -77 91 -80 42 -15 -26 36 -60 77 -73 92 -14 15 -23 30
-20 34 9 9 177 -80 253 -134 260 -185 551 -581 656 -892 95 -284 69 -601 -71
-880 -86 -170 -290 -406 -461 -534 -96 -71 -239 -157 -250 -150 -5 3 -33 -11
-63 -30 -77 -49 -171 -76 -267 -76 -91 0 -154 20 -227 73 -41 29 -58 35 -117
39 -202 15 -365 185 -804 838 -163 242 -234 362 -306 513 -174 367 -201 666
-78 876 70 121 229 245 460 360 279 139 523 191 750 160z"/>
<path d="M29850 9000 c-8 -4 -57 -23 -107 -40 -104 -36 -99 -27 -82 -145 6
-42 8 -79 5 -82 -23 -23 -1157 -276 -1872 -417 -1198 -237 -2139 -380 -2767
-420 -201 -13 -234 -18 -281 -39 -151 -70 -137 -294 21 -337 226 -62 439 -310
558 -651 33 -94 87 -332 100 -441 3 -24 80 -439 171 -922 90 -484 161 -882
157 -886 -4 -4 -61 -18 -126 -31 -65 -13 -123 -27 -129 -30 -6 -4 40 -265 123
-705 l133 -699 0 -195 c0 -161 -4 -212 -21 -290 -39 -180 -114 -334 -198 -410
-126 -113 -125 -111 -125 -181 0 -80 21 -124 78 -164 40 -28 50 -30 125 -29
68 0 100 7 187 38 164 58 505 159 725 215 290 73 495 117 1100 236 1543 303
2712 487 3251 512 79 3 144 8 144 9 0 2 -25 71 -55 153 -131 359 -172 576
-184 976 -6 230 -8 242 -31 285 -47 84 -159 115 -256 71 -55 -25 -81 -65 -99
-152 -81 -389 -322 -680 -680 -822 -158 -63 -251 -84 -962 -217 -384 -72 -728
-137 -764 -144 l-66 -13 -34 51 c-56 85 -115 215 -157 341 -33 98 -77 315
-242 1193 -111 591 -199 1076 -196 1079 8 8 410 82 514 94 52 6 161 9 245 6
169 -5 256 -25 362 -80 69 -36 189 -151 230 -221 32 -54 68 -76 125 -76 45 0
72 11 108 43 32 30 28 81 -12 174 -55 126 -93 274 -155 608 -43 234 -61 373
-61 483 0 153 -22 204 -95 218 -27 5 -46 1 -83 -18 l-47 -25 2 -64 c2 -56 55
-395 69 -440 7 -25 -110 -110 -231 -169 -55 -26 -152 -65 -215 -86 -111 -36
-122 -37 -305 -45 -104 -4 -202 -10 -217 -14 -25 -6 -27 -5 -38 49 -10 50 -14
55 -33 51 -68 -15 -249 -46 -252 -43 -1 1 -48 246 -104 543 -64 343 -103 578
-107 645 -7 108 7 276 29 365 l12 50 120 23 c66 12 419 79 785 148 638 121
672 126 830 131 178 6 290 -7 413 -48 101 -33 258 -115 327 -170 l64 -52 -38
52 c-20 29 -35 55 -33 58 14 13 287 -126 287 -146 0 -21 -126 -29 -162 -10
-11 6 7 -22 41 -62 34 -40 82 -103 106 -139 56 -82 85 -100 164 -100 121 0
191 69 191 186 -1 60 -5 74 -78 267 -112 294 -165 572 -180 939 -6 162 -9 186
-22 178z"/>
<path d="M17975 8881 c-47 -22 -89 -64 -104 -104 -26 -68 -1 -169 51 -206 156
-108 256 -320 289 -611 21 -186 10 -278 -115 -955 -63 -341 -197 -1065 -297
-1610 -100 -544 -183 -991 -185 -993 -1 -2 -66 39 -145 92 -79 52 -144 94
-145 93 -1 -1 -25 -128 -54 -281 -57 -309 -89 -423 -160 -571 -65 -134 -120
-214 -210 -309 -94 -99 -153 -139 -254 -172 -96 -32 -120 -54 -141 -128 -28
-96 9 -187 92 -227 43 -21 67 -23 275 -31 684 -23 1511 -172 2160 -389 197
-66 248 -79 301 -79 50 0 71 5 98 23 70 47 101 134 79 218 -9 32 -31 61 -99
128 -100 98 -138 163 -190 325 -48 149 -64 274 -58 446 5 128 17 212 111 725
59 319 110 589 114 599 7 17 11 13 26 -24 65 -163 199 -470 204 -466 2 3 21
97 41 208 21 111 40 198 43 193 4 -8 543 -1277 565 -1333 6 -14 -29 -12 -196
9 -41 5 -76 8 -78 6 -1 -2 5 -28 16 -58 33 -97 63 -243 63 -309 0 -90 -27
-254 -52 -321 -12 -31 -40 -80 -62 -109 -84 -111 -96 -174 -50 -261 35 -68
105 -123 190 -149 55 -17 101 -21 315 -24 139 -2 320 -12 402 -20 507 -55
1075 -185 1575 -361 171 -60 264 -58 315 9 49 64 42 169 -17 240 -16 20 -53
52 -83 71 -195 130 -381 386 -595 820 -78 158 -1228 2867 -1242 2923 -3 13
1237 914 1542 1121 429 291 787 466 1064 521 122 25 195 59 234 108 74 94 99
192 62 250 -27 44 -66 58 -182 67 -96 7 -96 7 -113 -19 -25 -38 -77 -66 -123
-66 -51 0 -293 35 -387 56 -113 25 -264 71 -409 124 -193 71 -268 75 -341 18
-54 -42 -69 -91 -70 -228 -2 -131 -11 -174 -60 -270 -67 -131 -231 -317 -415
-471 -89 -75 -1661 -1209 -1668 -1204 -2 2 50 302 62 357 5 24 1 21 -194 -120
-91 -66 -166 -118 -168 -117 -7 7 241 1327 264 1402 56 188 141 347 262 496
94 115 180 178 294 216 37 12 78 31 92 42 45 36 70 151 45 216 -25 68 -109
122 -190 123 -39 0 -52 -5 -82 -33 -54 -52 -105 -62 -239 -48 -581 60 -1268
206 -1723 366 -266 94 -283 97 -350 66z"/>
<path d="M24336 7854 c-13 -34 -5 -101 17 -144 23 -47 58 -70 160 -105 26 -10
71 -32 99 -51 60 -40 58 -31 -14 72 -52 76 -170 195 -226 226 -27 16 -31 16
-36 2z"/>
</g>
</svg>
